<?xml version="1.0" standalone="no"?>
<!DOCTYPE svg PUBLIC "-//W3C//DTD SVG 20010904//EN"
 "http://www.w3.org/TR/2001/REC-SVG-20010904/DTD/svg10.dtd">
<svg version="1.0" xmlns="http://www.w3.org/2000/svg"
 width="700.000000pt" height="700.000000pt" viewBox="0 0 700.000000 700.000000"
 preserveAspectRatio="xMidYMid meet">
<metadata>
Created by potrace 1.14, written by Peter Selinger 2001-2017
</metadata>
<g transform="translate(0.000000,700.000000) scale(0.100000,-0.100000)"
fill="#000000" stroke="none">
<path d="M3280 6994 c-19 -2 -84 -9 -145 -14 -639 -62 -1264 -315 -1795 -726
-149 -115 -481 -446 -595 -594 -410 -532 -653 -1132 -727 -1795 -17 -155 -17
-575 0 -730 75 -673 332 -1300 748 -1820 114 -143 339 -372 484 -494 537 -451
1163 -717 1885 -803 142 -17 586 -17 730 0 682 79 1268 318 1802 734 138 107
389 351 512 498 451 538 717 1162 803 1885 16 139 16 595 0 730 -77 629 -275
1158 -620 1649 -234 333 -577 668 -917 896 -460 308 -968 495 -1535 566 -117
15 -552 27 -630 18z m461 -765 c954 -75 1789 -580 2277 -1374 529 -863 505
-1975 -63 -2825 -115 -172 -198 -273 -350 -426 -464 -467 -1040 -747 -1730
-840 -181 -25 -569 -25 -750 0 -690 93 -1264 372 -1731 840 -151 152 -233 252
-349 426 -222 333 -363 701 -422 1105 -24 168 -24 543 0 710 73 494 266 934
581 1325 82 102 312 331 416 414 599 477 1352 706 2121 645z"/>
<path d="M3197 6045 c-799 -87 -1509 -498 -1958 -1135 -569 -806 -600 -1881
-78 -2723 136 -218 386 -499 589 -661 338 -269 771 -470 1186 -549 229 -45
308 -52 569 -51 351 0 578 36 894 140 405 133 761 353 1066 659 399 398 634
857 722 1407 25 160 25 556 0 716 -125 785 -586 1441 -1299 1851 -489 281
-1114 409 -1691 346z m1593 -830 c16 -9 32 -26 36 -39 16 -64 13 -68 -331
-393 -239 -227 -338 -327 -360 -365 -27 -49 -30 -62 -36 -197 l-8 -144 -48
-49 c-26 -28 -83 -81 -126 -119 -67 -60 -82 -69 -116 -69 -32 0 -44 6 -65 31
-48 56 -37 80 85 197 l87 83 4 117 c5 134 25 200 86 281 37 49 662 648 698
669 27 16 60 15 94 -3z m-2591 -177 c31 -29 524 -496 1096 -1038 572 -542
1184 -1121 1360 -1287 176 -167 337 -324 358 -350 106 -134 98 -316 -20 -443
-120 -130 -300 -163 -460 -84 -39 19 -151 118 -428 381 -305 289 -379 365
-400 407 -35 72 -40 128 -20 210 l17 68 -48 50 c-70 71 -73 72 -130 33 -63
-45 -159 -69 -231 -60 -104 13 -146 46 -550 428 -407 387 -528 512 -623 646
-159 223 -230 421 -230 639 0 122 20 216 65 310 80 169 137 190 244 90z m2835
-132 c37 -15 62 -62 52 -100 -4 -15 -120 -133 -288 -293 -373 -354 -361 -343
-403 -343 -63 0 -111 71 -83 122 21 39 635 616 660 621 13 2 24 5 26 6 1 0 17
-5 36 -13z m355 -261 c38 -19 56 -68 38 -103 -12 -25 -415 -417 -605 -588
-149 -133 -230 -164 -436 -164 l-112 0 -30 -31 c-16 -17 -59 -58 -97 -90 -81
-71 -120 -78 -168 -30 -50 51 -42 70 79 193 59 60 116 115 127 121 12 7 87 14
185 17 147 4 170 8 213 28 31 16 152 123 360 320 172 164 325 307 341 320 33
26 65 28 105 7z m-2622 -1541 c29 -18 40 -76 21 -107 -9 -12 -179 -177 -380
-367 -201 -190 -375 -360 -388 -377 -52 -75 -28 -187 52 -241 52 -34 136 -41
190 -15 21 10 213 185 428 388 215 204 401 374 413 378 72 27 146 -44 118
-111 -14 -33 -776 -756 -838 -795 -65 -41 -154 -61 -237 -54 -214 18 -378 222
-337 417 23 109 44 133 446 518 209 199 394 369 410 377 32 16 67 12 102 -11z"/>
<path d="M2095 4798 c-28 -97 -24 -249 9 -361 46 -154 138 -311 276 -471 84
-97 863 -837 898 -853 49 -22 86 -15 149 27 104 69 205 72 281 7 81 -68 145
-134 163 -169 23 -45 25 -115 4 -165 -18 -43 -19 -73 -3 -108 7 -15 174 -181
373 -369 371 -351 390 -366 467 -366 34 0 87 19 121 44 33 24 67 91 67 134 0
76 -19 98 -378 438 -191 181 -808 766 -1371 1299 -563 534 -1027 971 -1031
973 -4 1 -15 -26 -25 -60z"/>
</g>
</svg>
