<svg id="lg" width="46" height="46" viewBox="0 0 46 46" fill="none" xmlns="http://www.w3.org/2000/svg">
<circle cx="23" cy="23" r="23" fill="#EF3A36"/>
<path d="M32.7101 30.1938L14.2152 12.6633C14.0916 12.5461 13.921 12.4845 13.7469 12.4927C13.5722 12.5013 13.4096 12.5796 13.2995 12.7082C13.2651 12.7483 12.4563 13.7103 12.3979 15.344C12.3229 17.4448 13.4584 19.6225 15.7731 21.8165L20.4058 26.2077C20.8052 26.5862 21.3363 26.7947 21.9013 26.7947C22.4662 26.7947 22.9972 26.5862 23.3966 26.2077C23.4284 26.1775 23.4646 26.1713 23.4895 26.1713C23.5142 26.1713 23.5504 26.1776 23.5822 26.2077L24.3309 26.9174C24.3596 26.9445 24.3478 27.0145 24.321 27.0696C23.9556 27.827 24.1276 28.7319 24.7492 29.321L29.19 33.5303C29.6753 33.9903 30.3127 34.2203 30.95 34.2203C31.5875 34.2203 32.2248 33.9903 32.7101 33.5303C33.6806 32.6105 33.6806 31.1137 32.7101 30.1938ZM31.8371 32.7027C31.3481 33.1663 30.5524 33.1663 30.0633 32.7027L25.6224 28.4934C25.3637 28.2481 25.292 27.8717 25.4441 27.5564C25.6933 27.0399 25.5991 26.4642 25.2041 26.0898L24.4553 25.3801C24.1973 25.1356 23.8542 25.0009 23.4894 25.0009C23.1245 25.0009 22.7814 25.1357 22.5234 25.3801C22.3572 25.5377 22.1362 25.6244 21.9012 25.6244C21.6662 25.6244 21.4452 25.5376 21.279 25.3801L16.6462 20.989C13.0612 17.5909 13.4542 15.1149 13.9181 14.0369L31.8371 31.0214C32.3262 31.485 32.3262 32.2392 31.8371 32.7027Z" fill="white"/>
<path d="M33.2688 13.8667C33.0277 13.6382 32.6367 13.6382 32.3957 13.8667L28.4554 17.6015C28.2142 17.8301 28.2142 18.2007 28.4554 18.4292C28.576 18.5435 28.734 18.6007 28.892 18.6007C29.0499 18.6007 29.208 18.5436 29.3285 18.4292L33.2688 14.6943C33.5098 14.4658 33.5098 14.0952 33.2688 13.8667Z" fill="white"/>
<path d="M31.5913 11.7988C31.3502 11.5703 30.9593 11.5703 30.7183 11.7988L26.7018 15.6059C26.0861 16.1895 25.7226 16.931 25.7048 17.6403L25.6772 18.7293L24.5579 19.7903C24.3168 20.0188 24.3168 20.3894 24.5579 20.6178C24.6784 20.7321 24.8364 20.7893 24.9944 20.7893C25.1524 20.7893 25.3104 20.7321 25.431 20.6178L26.725 19.3913C26.8371 19.285 26.9018 19.1418 26.9057 18.9916L26.9392 17.6683C26.9494 17.2627 27.1871 16.801 27.5749 16.4333L31.5913 12.6264C31.8325 12.3978 31.8325 12.0273 31.5913 11.7988Z" fill="white"/>
<path d="M21.0367 27.9697C20.7957 27.7411 20.4048 27.7411 20.1637 27.9697L15.2243 32.6515C14.9873 32.8761 14.6723 32.9998 14.3374 32.9998C14.0024 32.9998 13.6873 32.8761 13.4505 32.6515C13.2135 32.4269 13.0831 32.1284 13.0831 31.8109C13.0831 31.4933 13.2136 31.1948 13.4505 30.9702L18.2185 26.4508C18.4596 26.2223 18.4596 25.8517 18.2185 25.6233C17.9773 25.3948 17.5864 25.3948 17.3454 25.6233L12.5774 30.1427C12.1073 30.5883 11.8484 31.1808 11.8484 31.811C11.8484 32.4412 12.1074 33.0336 12.5774 33.4792C13.0474 33.9248 13.6726 34.1702 14.3374 34.1702C15.0023 34.1702 15.6273 33.9247 16.0975 33.4792L21.0369 28.7973C21.2779 28.5686 21.2779 28.1981 21.0367 27.9697Z" fill="white"/>
<path d="M35.5427 15.5445C35.3016 15.3159 34.9106 15.3159 34.6696 15.5445L30.6533 19.3513C30.2718 19.7129 29.7827 19.9233 29.3375 19.9188L27.8862 19.8979C27.7208 19.8957 27.5583 19.9573 27.4403 20.0692L26.1462 21.2958C25.9051 21.5244 25.9051 21.8949 26.1462 22.1234C26.2667 22.2376 26.4247 22.2948 26.5827 22.2948C26.7407 22.2948 26.8987 22.2377 27.0192 22.1234L28.1286 21.0719L29.3187 21.0889C30.1007 21.1003 30.9044 20.7685 31.5264 20.1789L35.5427 16.372C35.7838 16.1434 35.7838 15.7729 35.5427 15.5445Z" fill="white"/>
<path d="M36.4754 10.2907C32.8761 6.87888 28.0904 5 23 5C17.9097 5 13.1239 6.87888 9.5246 10.2907C5.92526 13.7025 3.94287 18.2385 3.94287 23.0634C3.94287 27.8883 5.92511 32.4245 9.5246 35.8362C13.1241 39.2478 17.9097 41.1269 23 41.1269C28.0904 41.1269 32.8761 39.248 36.4754 35.8362C40.0748 32.4244 42.0572 27.8883 42.0572 23.0634C42.0572 18.2385 40.0749 13.7023 36.4754 10.2907ZM35.6024 35.0086C32.2361 38.1993 27.7606 39.9565 23 39.9565C18.2395 39.9565 13.7639 38.1993 10.3977 35.0086C7.03154 31.8179 5.17764 27.5757 5.17764 23.0634C5.17764 18.5512 7.03154 14.3089 10.3977 11.1182C13.7639 7.92762 18.2395 6.17038 23 6.17038C27.7605 6.17038 32.2361 7.92755 35.6024 11.1182C38.9686 14.3089 40.8224 18.5511 40.8224 23.0634C40.8224 27.5758 38.9685 31.8179 35.6024 35.0086Z" fill="white"/>
</svg>
